PathFileType	4	(X/Y/Z)	Walk6.trc
DataRate	CameraRate	NumFrames	NumMarkers	Units	OrigDataRate	OrigDataStartFrame	OrigNumFrames
200.000000	200.000000	9	58	mm	200.000000	595	716
Frame#	Times		RCAR		LMT1		RFHD		LTB2		LFHD		LTB3		RUA1		LMT5		LTB4		RElbow		RASI		RFA1		LACR1		LToe		RBHD		LUA1		LASI		RACR1		LTH1		LTH3		RTH3		LCAR		RWRU		LTH2		RLFC		C7		RBack		STRN		LElbow		RTH4		RTH2		CLAV		LTH4		RMT1		LLFC		RWRR		LWRR		RTB4		RTB3		LFA1		LPSI		RPSI		RTB2		RToe		LTB1		RTB1		LWRU		RTH1		LElbowM		LMMAL		LBHD		T10		RLMAL		RMMAL		RCAL		RMT5		LCAL		RElbowM
			X1	Y1	Z1	X2	Y2	Z2	X3	Y3	Z3	X4	Y4	Z4	X5	Y5	Z5	X6	Y6	Z6	X7	Y7	Z7	X8	Y8	Z8	X9	Y9	Z9	X10	Y10	Z10	X11	Y11	Z11	X12	Y12	Z12	X13	Y13	Z13	X14	Y14	Z14	X15	Y15	Z15	X16	Y16	Z16	X17	Y17	Z17	X18	Y18	Z18	X19	Y19	Z19	X20	Y20	Z20	X21	Y21	Z21	X22	Y22	Z22	X23	Y23	Z23	X24	Y24	Z24	X25	Y25	Z25	X26	Y26	Z26	X27	Y27	Z27	X28	Y28	Z28	X29	Y29	Z29	X30	Y30	Z30	X31	Y31	Z31	X32	Y32	Z32	X33	Y33	Z33	X34	Y34	Z34	X35	Y35	Z35	X36	Y36	Z36	X37	Y37	Z37	X38	Y38	Z38	X39	Y39	Z39	X40	Y40	Z40	X41	Y41	Z41	X42	Y42	Z42	X43	Y43	Z43	X44	Y44	Z44	X45	Y45	Z45	X46	Y46	Z46	X47	Y47	Z47	X48	Y48	Z48	X49	Y49	Z49	X50	Y50	Z50	X51	Y51	Z51	X52	Y52	Z52	X53	Y53	Z53	X54	Y54	Z54	X55	Y55	Z55	X56	Y56	Z56	X57	Y57	Z57	X58	Y58	Z58

595	2.975	782.26	843.83	363.74	976.1	87.538	-20.141	673.64	1581.7	51.318	814.09	277.89	-91.681	645.06	1587.1	-38.869	859.28	199.02	-42.703	593.48	1193.2	282.08	945.74	60.083	-84.089	842.51	282.82	-37.927	571.65	1070.6	326.71	662.31	967.86	182.84	636.33	938.18	349.93	535.67	1362.9	-133.84	1029.8	108.8	-58.786	532.78	1525.6	109.72	494.33	1181.4	-221.52	662.3	948.64	-113.21	565.87	1363.7	177.16	598.55	730.82	-181.53	676.67	586.18	-132.72	510.4	576.67	200.85	472.04	760.95	-277.77	704.46	849.06	352.74	688.32	690.61	-150.95	478.36	493.33	178.94	474.89	1401.5	37.745	438.65	1305.6	149.63	677.08	1224.9	15.756	437.76	1062.5	-239.07	535.18	654.03	223.25	589.08	645.1	201.5	613.26	1328.6	16.351	637.26	660.39	-152.45	469.31	33.836	58.819	728.27	483.1	-99.732	752.64	882.2	309.06	477.38	806.83	-233.32	449.62	250.28	96.627	422.54	169.17	96.595	417.18	928.79	-258.56	417.68	941.25	-14.354	417.38	951.64	74.353	427.47	256.5	155.04	538.38	27.101	90.308	826.88	368.12	-36.393	476.06	333.58	102.71	417.63	811.59	-272	565.05	732.54	249.93	417.11	1039.3	-161.15	873.1	90.673	14.308	495.77	1526.8	-27.05	405.05	1133.9	36.205	357.78	67.513	116.91	372.67	73.408	34.872	291.06	40.214	82.22	438.01	25.685	135.77	804.21	31.69	-17.792	562	1027.8	237.96
596	2.98	790.43	844.47	363.26	989.08	90.614	-19.171	679.3	1580.7	50.631	823.52	278.21	-91.668	650.75	1586	-39.553	870.02	200.14	-42.522	600.01	1192.7	281.49	959.89	62.102	-83.107	851.6	283.65	-37.785	578.6	1070.1	326.45	667.88	967.13	182.77	643.94	938	349.69	541.22	1361.9	-134.35	1042.8	112.73	-57.404	538.46	1524.8	109.12	498.79	1180.6	-221.82	668.33	947.81	-113.42	571.51	1363	176.67	604.5	729.96	-182.03	682.2	584.86	-133.58	514.56	576.29	200.65	473.87	760.15	-278.32	712.56	849.26	352.47	694.12	689.44	-151.12	482.04	493.12	178.73	480.47	1400.5	37.258	444.33	1304.6	149.22	682.82	1224	15.295	441.61	1061.8	-238.91	539.76	653.48	223.09	593.6	644.31	201.29	618.98	1327.7	15.875	643.02	659.27	-153.29	469.4	33.874	58.78	733.82	481.84	-100.17	760.44	882.59	308.61	480.14	805.99	-233.94	451.45	250.17	96.494	423.71	169.27	96.492	420.15	928.29	-258.31	423.61	940.15	-14.724	423.24	950.54	73.951	429.29	256.61	154.93	538.48	26.952	90.536	834.29	368.66	-36.277	478.63	333.23	102.59	419.83	811.05	-271.72	570.11	731.85	249.79	421.6	1038.6	-160.86	885.83	91.957	14.492	501.42	1525.9	-27.652	410.83	1132.9	35.797	358.12	68.184	116.86	373.05	73.897	34.789	291.19	41.293	82.134	438.03	25.771	135.72	818.24	31.566	-17.852	568.71	1027.1	237.79
597	2.985	798.47	845.05	362.76	1001.3	93.445	-18.182	684.95	1579.7	49.936	832.68	278.5	-91.641	656.45	1585	-40.244	880.27	201.15	-42.322	606.47	1192.1	280.89	973.22	64.058	-82.185	860.35	284.36	-37.595	585.49	1069.6	326.14	673.47	966.42	182.7	651.47	937.81	349.41	546.79	1360.9	-134.89	1055	116.38	-55.968	544.15	1524	108.49	503.33	1179.7	-222.13	674.42	946.99	-113.6	577.15	1362.2	176.17	610.5	729.12	-182.53	687.86	583.62	-134.37	518.79	575.92	200.45	475.8	759.34	-278.81	720.55	849.42	352.18	699.99	688.35	-151.29	485.81	492.92	178.53	486.06	1399.5	36.735	450	1303.6	148.76	688.58	1223.2	14.822	445.56	1061.1	-238.77	544.4	652.94	222.92	598.19	643.53	201.09	624.72	1326.8	15.377	648.86	658.19	-154.11	469.49	33.919	58.743	739.48	480.65	-100.57	768.11	882.93	308.14	482.97	805.15	-234.54	453.32	250.08	96.357	424.91	169.4	96.403	423.23	927.78	-258.06	429.56	939.05	-15.124	429.13	949.46	73.521	431.19	256.75	154.81	538.58	26.797	90.765	841.51	369.08	-36.085	481.25	332.9	102.46	422.15	810.53	-271.44	575.22	731.18	249.62	426.18	1037.9	-160.58	897.79	93.14	14.671	507.07	1525	-28.272	416.64	1131.8	35.354	358.48	68.9	116.84	373.43	74.43	34.742	291.33	42.444	82.106	438.05	25.876	135.68	831.46	31.476	-18.016	575.38	1026.3	237.58
598	2.99	806.38	845.56	362.22	1012.7	95.98	-17.187	690.6	1578.8	49.235	841.54	278.75	-91.599	662.15	1584	-40.943	890.01	202.02	-42.106	612.85	1191.5	280.29	985.67	65.926	-81.35	868.75	284.94	-37.361	592.32	1069.1	325.79	679.1	965.73	182.64	658.89	937.58	349.09	552.39	1359.9	-135.46	1066.5	119.68	-54.497	549.83	1523.2	107.85	507.95	1178.9	-222.47	680.58	946.17	-113.74	582.77	1361.4	175.65	616.55	728.28	-183.04	693.66	582.47	-135.09	523.1	575.57	200.23	477.84	758.53	-279.25	728.4	849.55	351.84	705.93	687.34	-151.46	489.66	492.73	178.31	491.66	1398.5	36.174	455.66	1302.7	148.25	694.35	1222.3	14.337	449.6	1060.4	-238.64	549.12	652.42	222.72	602.86	642.76	200.89	630.48	1325.9	14.857	654.78	657.17	-154.87	469.56	33.97	58.713	745.27	479.54	-100.92	775.67	883.2	307.63	485.88	804.32	-235.1	455.23	250.01	96.218	426.14	169.55	96.328	426.43	927.27	-257.82	435.54	937.97	-15.56	435.07	948.39	73.06	433.16	256.92	154.7	538.68	26.637	90.993	848.56	369.37	-35.822	483.93	332.57	102.3	424.58	810	-271.17	580.38	730.53	249.44	430.84	1037.2	-160.34	908.99	94.181	14.842	512.73	1524.1	-28.911	422.49	1130.8	34.877	358.85	69.663	116.86	373.8	75.011	34.734	291.48	43.67	82.142	438.09	25.997	135.67	843.85	31.386	-18.28	581.98	1025.6	237.33
599	2.995	814.15	846.02	361.66	1023.4	98.171	-16.197	696.26	1577.8	48.526	850.1	278.93	-91.541	667.86	1583	-41.649	899.25	202.72	-41.876	619.15	1190.9	279.69	997.23	67.67	-80.622	876.81	285.38	-37.088	599.08	1068.5	325.39	684.76	965.06	182.57	666.21	937.34	348.72	558.02	1359	-136.06	1077.2	122.59	-53.009	555.52	1522.4	107.19	512.65	1178	-222.83	686.81	945.36	-113.84	588.38	1360.7	175.11	622.66	727.46	-183.54	699.61	581.42	-135.71	527.49	575.22	200.02	479.99	757.73	-279.63	736.12	849.63	351.47	711.95	686.41	-151.62	493.6	492.55	178.09	497.26	1397.6	35.576	461.32	1301.7	147.7	700.15	1221.5	13.841	453.74	1059.7	-238.53	553.9	651.91	222.51	607.6	642.01	200.69	636.25	1325.1	14.313	660.8	656.2	-155.58	469.63	34.03	58.689	751.2	478.53	-101.22	783.1	883.42	307.09	488.87	803.49	-235.62	457.18	249.96	96.077	427.42	169.74	96.269	429.74	926.75	-257.58	441.55	936.91	-16.031	441.04	947.34	72.564	435.21	257.11	154.6	538.78	26.47	91.216	855.44	369.54	-35.494	486.68	332.26	102.13	427.12	809.48	-270.89	585.59	729.89	249.23	435.58	1036.5	-160.13	919.41	95.043	15.006	518.39	1523.2	-29.569	428.37	1129.8	34.365	359.25	70.474	116.93	374.18	75.641	34.768	291.64	44.973	82.246	438.14	26.135	135.68	855.39	31.266	-18.63	588.53	1024.9	237.02
600	3	821.78	846.41	361.07	1033.2	99.975	-15.22	701.92	1576.9	47.812	858.34	279.02	-91.466	673.58	1582.1	-42.362	907.98	203.25	-41.632	625.38	1190.3	279.09	1007.9	69.249	-80.003	884.54	285.65	-36.78	605.76	1068	324.95	690.46	964.41	182.49	673.41	937.08	348.3	563.69	1358	-136.68	1087.2	125.04	-51.517	561.2	1521.7	106.51	517.45	1177.2	-223.21	693.1	944.56	-113.91	593.98	1359.9	174.56	628.83	726.65	-184.04	705.7	580.47	-136.23	531.98	574.87	199.79	482.24	756.92	-279.96	743.7	849.68	351.07	718.06	685.57	-151.76	497.65	492.38	177.86	502.87	1396.6	34.94	466.96	1300.7	147.1	705.97	1220.7	13.334	457.99	1059	-238.45	558.76	651.41	222.28	612.42	641.27	200.49	642.03	1324.3	13.745	666.92	655.29	-156.21	469.7	34.1	58.675	757.24	477.6	-101.46	790.41	883.59	306.52	491.94	802.67	-236.11	459.17	249.94	95.937	428.73	169.96	96.228	433.17	926.24	-257.36	447.61	935.88	-16.541	447.05	946.32	72.033	437.35	257.32	154.51	538.88	26.299	91.434	862.17	369.55	-35.11	489.49	331.95	101.95	429.79	808.97	-270.63	590.85	729.27	249	440.4	1035.9	-159.94	929.06	95.695	15.168	524.06	1522.4	-30.248	434.29	1128.8	33.818	359.67	71.335	117.04	374.55	76.322	34.847	291.81	46.357	82.424	438.2	26.287	135.7	866.06	31.091	-19.051	595.03	1024.1	236.67
601	3.005	829.25	846.75	360.46	1042.3	101.35	-14.261	707.58	1576.1	47.092	866.26	279.01	-91.372	679.3	1581.2	-43.081	916.21	203.56	-41.374	631.52	1189.8	278.48	1017.6	70.608	-79.486	891.94	285.74	-36.442	612.36	1067.4	324.46	696.2	963.78	182.4	680.51	936.79	347.85	569.38	1357.1	-137.34	1096.4	126.99	-50.035	566.88	1520.9	105.82	522.35	1176.3	-223.62	699.46	943.78	-113.96	599.57	1359.2	173.98	635.08	725.88	-184.52	711.95	579.63	-136.64	536.56	574.53	199.56	484.62	756.11	-280.25	751.15	849.69	350.63	724.26	684.82	-151.89	501.8	492.21	177.62	508.5	1395.7	34.267	472.61	1299.8	146.45	711.81	1220	12.817	462.36	1058.3	-238.4	563.7	650.93	222.04	617.33	640.55	200.29	647.84	1323.5	13.152	673.15	654.46	-156.76	469.76	34.18	58.671	763.4	476.75	-101.66	797.59	883.7	305.93	495.1	801.85	-236.56	461.22	249.93	95.799	430.08	170.22	96.204	436.72	925.73	-257.14	453.71	934.89	-17.088	453.11	945.34	71.467	439.58	257.56	154.43	538.98	26.124	91.643	868.74	369.42	-34.681	492.37	331.65	101.76	432.57	808.47	-270.37	596.17	728.67	248.76	445.31	1035.2	-159.79	937.94	96.115	15.334	529.74	1521.6	-30.949	440.25	1127.8	33.238	360.12	72.246	117.2	374.92	77.057	34.972	292	47.824	82.678	438.29	26.45	135.75	875.86	30.841	-19.52	601.47	1023.4	236.26
602	3.01	836.58	847.03	359.82	1050.7	102.28	-13.323	713.26	1575.2	46.368	873.86	278.88	-91.258	685.04	1580.3	-43.807	923.95	203.66	-41.099	637.59	1189.2	277.88	1026.5	71.691	-79.05	899.01	285.64	-36.077	618.88	1066.9	323.93	701.98	963.17	182.29	687.49	936.49	347.35	575.1	1356.2	-138.03	1104.9	128.39	-48.574	572.57	1520.2	105.11	527.34	1175.5	-224.05	705.87	943.02	-114	605.17	1358.5	173.39	641.41	725.13	-184.98	718.33	578.9	-136.95	541.24	574.19	199.33	487.11	755.32	-280.48	758.45	849.67	350.15	730.56	684.15	-152	506.06	492.04	177.37	514.14	1394.8	33.556	478.27	1298.9	145.76	717.69	1219.3	12.288	466.83	1057.6	-238.37	568.72	650.46	221.79	622.33	639.84	200.1	653.67	1322.7	12.533	679.48	653.7	-157.22	469.81	34.272	58.678	769.67	475.98	-101.82	804.64	883.77	305.31	498.34	801.04	-236.97	463.32	249.95	95.665	431.49	170.51	96.197	440.4	925.23	-256.95	459.86	933.95	-17.672	459.22	944.41	70.865	441.9	257.82	154.36	539.08	25.945	91.841	875.17	369.14	-34.216	495.33	331.36	101.55	435.48	807.98	-270.12	601.54	728.08	248.51	450.3	1034.5	-159.68	946.08	96.285	15.51	535.43	1520.8	-31.671	446.25	1126.9	32.625	360.61	73.21	117.41	375.3	77.849	35.143	292.21	49.377	83.009	438.39	26.623	135.81	884.79	30.501	-20.014	607.86	1022.7	235.8
603	3.015	843.75	847.25	359.16	1058.3	102.73	-12.41	718.93	1574.4	45.639	881.15	278.62	-91.121	690.78	1579.5	-44.539	931.2	203.53	-40.803	643.58	1188.6	277.27	1034.5	72.439	-78.667	905.78	285.36	-35.689	625.31	1066.4	323.35	707.81	962.58	182.16	694.36	936.18	346.81	580.86	1355.3	-138.74	1112.7	129.21	-47.143	578.25	1519.5	104.38	532.43	1174.6	-224.5	712.35	942.29	-114.03	610.76	1357.9	172.78	647.83	724.42	-185.42	724.85	578.26	-137.16	546.02	573.86	199.09	489.72	754.52	-280.67	765.6	849.61	349.64	736.95	683.56	-152.08	510.44	491.88	177.11	519.79	1394	32.809	483.93	1298	145.03	723.59	1218.6	11.746	471.43	1056.9	-238.37	573.83	649.99	221.52	627.42	639.14	199.9	659.51	1322	11.889	685.91	653.01	-157.59	469.87	34.376	58.696	776.05	475.29	-101.95	811.55	883.78	304.66	501.67	800.24	-237.35	465.49	249.98	95.535	432.94	170.83	96.209	444.21	924.73	-256.77	466.07	933.05	-18.288	465.38	943.52	70.229	444.33	258.1	154.31	539.18	25.764	92.027	881.47	368.71	-33.725	498.37	331.07	101.34	438.52	807.49	-269.88	606.98	727.51	248.24	455.36	1033.8	-159.6	953.48	96.196	15.706	541.13	1520.1	-32.415	452.29	1125.9	31.981	361.14	74.229	117.66	375.69	78.702	35.361	292.45	51.02	83.418	438.52	26.802	135.88	892.85	30.068	-20.51	614.19	1022	235.28
